<svg width="33" height="33" viewBox="0 0 33 33" fill="none" xmlns="http://www.w3.org/2000/svg">
<path d="M16.2383 32.0693C25.0748 32.0693 32.2383 24.9059 32.2383 16.0693C32.2383 7.23278 25.0748 0.0693359 16.2383 0.0693359C7.40173 0.0693359 0.238281 7.23278 0.238281 16.0693C0.238281 24.9059 7.40173 32.0693 16.2383 32.0693Z" fill="#3987F0"/>
<path d="M15.919 8.86905C15.8248 8.91866 15.6958 9.03274 15.6363 9.12699C15.5321 9.28076 15.5222 9.3502 15.5222 9.98016V10.6647L14.2672 10.6796L13.0123 10.6944L12.6849 10.8581C12.3079 11.0417 12.0897 11.2649 11.9061 11.6617L11.7772 11.9345L11.7623 16.9246L11.7524 21.9147L11.4002 21.9395C10.8744 21.9792 10.6016 22.2173 10.6016 22.6488C10.6016 22.9068 10.6908 23.0605 10.9289 23.2391C11.0629 23.3433 11.0728 23.3433 18.1016 23.3433C18.6878 23.0986 19.2785 22.6552 19.4125 22.5511C19.4125 22.5511 20.9101 23.0506 20.9101 22.7926L21.4415 22.5511L20.6908 21.9395L20.671 18.7989L20.6908 17.885L20.671 16.1029L20.6908 13.4921L20.671 12.6885C20.6561 11.9941 20.6412 11.8552 20.547 11.6518C20.3982 11.3244 20.0906 11.0119 19.7533 10.8383L19.4656 10.6944L18.1908 10.6796L16.9111 10.6647V9.98512C16.9111 9.39981 16.8962 9.28572 16.8119 9.14683C16.6184 8.82441 16.2315 8.70536 15.919 8.86905ZM19.2226 12.1776C19.2821 12.2619 19.292 13.0109 19.292 17.1032V21.9296H16.2414H13.1908L13.2008 17.0337L13.2156 12.1379L13.3397 12.1032C13.4091 12.0833 14.7434 12.0685 16.3059 12.0734C19.0589 12.0833 19.1531 12.0883 19.2226 12.1776Z" fill="white"/>
<path d="M16.5566 8.86905C16.6508 8.91866 16.7798 9.03274 16.8393 9.12699C16.9435 9.28076 16.9534 9.3502 16.9534 9.98016V10.6647L18.2083 10.6796L19.4633 10.6944L19.7907 10.8581C20.1677 11.0417 20.3859 11.2649 20.5695 11.6617L20.6984 11.9345L20.7133 16.9246L20.7232 21.9147L21.0754 21.9395C21.6012 21.9792 21.874 22.2173 21.874 22.6488C21.874 22.9068 21.7847 23.0605 21.5466 23.2391C21.4127 23.3433 21.4028 23.3433 14.374 23.3433C12.5499 23.0557 11.9167 22.0437 11.7828 21.9395C11.7828 21.9395 11.7955 22.1974 11.7955 21.9395C11.7955 21.9395 11.2589 21.9792 11.7847 21.9395L11.8046 18.7989L11.7847 17.885L11.8046 16.1029L11.7847 13.4921L11.8046 12.6885C11.8195 11.9941 11.8343 11.8552 11.9286 11.6518C12.0774 11.3244 12.3849 11.0119 12.7222 10.8383L13.0099 10.6944L14.2847 10.6796L15.5645 10.6647V9.98512C15.5645 9.39981 15.5794 9.28572 15.6637 9.14683C15.8572 8.82441 16.2441 8.70536 16.5566 8.86905ZM13.253 12.1776C13.1935 12.2619 13.1835 13.0109 13.1835 17.1032V21.9296H16.2341H19.2847L19.2748 17.0337L19.2599 12.1379L19.1359 12.1032C19.0665 12.0833 17.7322 12.0685 16.1697 12.0734C13.4167 12.0833 13.3224 12.0883 13.253 12.1776Z" fill="white"/>
<path d="M15.8785 14.539C15.4767 14.787 15.4073 15.288 15.7297 15.6154C16.1761 16.0619 16.9102 15.7642 16.9102 15.1343C16.9102 14.5986 16.3299 14.2662 15.8785 14.539Z" fill="white"/>
<path d="M15.8442 18.3084C15.4077 18.5961 15.4276 19.2211 15.879 19.4989C16.3055 19.7568 16.8512 19.4691 16.9008 18.9632C16.9256 18.6705 16.8264 18.4424 16.5982 18.3084C16.3899 18.1795 16.0377 18.1795 15.8442 18.3084Z" fill="white"/>
</svg>
