<svg width="33" height="33" viewBox="0 0 33 33" fill="none" xmlns="http://www.w3.org/2000/svg">
<path fill-rule="evenodd" clip-rule="evenodd" d="M16.2383 0.476074C7.39988 0.476074 0.238281 7.63767 0.238281 16.4761C0.238281 25.3145 7.39988 32.4761 16.2383 32.4761C25.0767 32.4761 32.2383 25.3145 32.2383 16.4761C32.2383 7.63767 25.0767 0.476074 16.2383 0.476074Z" fill="#3987F0"/>
<path d="M14.0557 9.2753C13.9615 9.32491 13.8325 9.439 13.773 9.53324C13.6688 9.68701 13.6589 9.75646 13.6589 10.3864V11.0709L12.404 11.0858L11.149 11.1007L10.8216 11.2644C10.4446 11.4479 10.2264 11.6711 10.0428 12.068L9.91388 12.3408L9.899 17.3309L9.88907 22.3209L9.53689 22.3457C9.0111 22.3854 8.73828 22.6235 8.73828 23.0551C8.73828 23.313 8.82757 23.4668 9.06566 23.6453C9.19959 23.7495 9.20951 23.7495 16.2383 23.7495C23.2671 23.7495 23.277 23.7495 23.4109 23.6453C23.649 23.4668 23.7383 23.313 23.7383 23.0551C23.7383 22.6285 23.4655 22.3854 22.9397 22.3457L22.5924 22.3209L22.5776 18.7446L22.5627 15.1682L22.4337 14.8904C22.2551 14.5134 21.9873 14.2307 21.6549 14.067L21.3722 13.9281L20.0974 13.9132L18.8276 13.8983L18.8077 13.0947C18.7928 12.4003 18.778 12.2614 18.6837 12.058C18.5349 11.7307 18.2274 11.4182 17.8901 11.2446L17.6024 11.1007L16.3276 11.0858L15.0478 11.0709V10.3914C15.0478 9.80606 15.0329 9.69197 14.9486 9.55308C14.7551 9.23066 14.3682 9.11161 14.0557 9.2753ZM17.3593 12.5838C17.4188 12.6682 17.4288 13.4172 17.4288 17.5094V22.3358H14.3782H11.3276L11.3375 17.44L11.3524 12.5442L11.4764 12.5094C11.5458 12.4896 12.8801 12.4747 14.4426 12.4797C17.1956 12.4896 17.2899 12.4946 17.3593 12.5838ZM21.0547 15.3418C21.144 15.3914 21.149 15.4856 21.149 18.8636V22.3358H19.9833H18.8176V18.814V15.2922H19.8891C20.529 15.2922 20.9952 15.312 21.0547 15.3418Z" fill="white"/>
<path d="M14.0152 14.9453C13.6134 15.1933 13.544 15.6943 13.8664 16.0217C14.3128 16.4681 15.047 16.1705 15.047 15.5405C15.047 15.0048 14.4666 14.6725 14.0152 14.9453Z" fill="white"/>
<path d="M13.981 18.7147C13.5444 19.0024 13.5643 19.6274 14.0157 19.9052C14.4423 20.1631 14.9879 19.8754 15.0375 19.3694C15.0623 19.0768 14.9631 18.8486 14.7349 18.7147C14.5266 18.5857 14.1744 18.5857 13.981 18.7147Z" fill="white"/>
</svg>
